<svg width="32" height="35" viewBox="0 0 32 35" fill="none" xmlns="http://www.w3.org/2000/svg">
<path opacity="0.8" d="M1.49964 32.9399L15.394 13.8528C15.7965 13.2999 16.6229 13.3051 17.0184 13.8631L30.5577 32.9651C31.0792 33.701 30.4368 34.6968 29.5514 34.5251L18.3237 32.3472C17.9163 32.2682 17.6 31.9458 17.5289 31.5369L16.9415 28.1613C16.7508 27.0652 15.1818 27.053 14.974 28.1459L14.3263 31.5516C14.25 31.9529 13.9372 32.2675 13.5363 32.3461L2.50052 34.5098C1.60843 34.6847 0.964627 33.6749 1.49964 32.9399Z" fill="#00789E"/>
<path opacity="0.8" d="M1.49964 26.5761L15.394 7.48903C15.7965 6.93611 16.6229 6.94133 17.0184 7.49929L30.5577 26.6013C31.0792 27.3372 30.4368 28.333 29.5514 28.1613L18.3237 25.9834C17.9163 25.9044 17.6 25.582 17.5289 25.1731L16.9415 21.7975C16.7508 20.7014 15.1818 20.6892 14.974 21.7821L14.3263 25.1878C14.25 25.5891 13.9372 25.9037 13.5363 25.9823L2.50052 28.146C1.60843 28.3209 0.964627 27.3111 1.49964 26.5761Z" fill="#00649E"/>
<path opacity="0.8" d="M1.49964 20.2126L15.394 1.12551C15.7965 0.572581 16.6229 0.577802 17.0184 1.13577L30.5577 20.2378C31.0792 20.9736 30.4368 21.9695 29.5514 21.7978L18.3237 19.6199C17.9163 19.5409 17.6 19.2184 17.5289 18.8096L16.9415 15.4339C16.7508 14.3379 15.1818 14.3256 14.974 15.4185L14.3263 18.8242C14.25 19.2256 13.9372 19.5402 13.5363 19.6188L2.50052 21.7825C1.60843 21.9574 0.964627 20.9476 1.49964 20.2126Z" fill="#00569E"/>
</svg>
